#define flagk_width 15
#define flagk_height 15
static char flagk_bits[] = {
     0xe0, 0x03, 0x18, 0x0c, 0x04, 0x10, 0x02, 0x20, 0x02, 0x30, 0x01, 0x70,
     0x71, 0x70, 0xf9, 0x78, 0xfd, 0x7f, 0xfd, 0x7f, 0xfe, 0x3f, 0xfe, 0x3f,
     0xfc, 0x1f, 0xf8, 0x0f, 0xe0, 0x03};
