#define flage_width 15
#define flage_height 15
#define flage_x_hot -1
#define flage_y_hot -1
static char flage_bits[] = {
     0xbd, 0xde, 0xba, 0xae, 0xb5, 0xd6, 0xab, 0xea, 0x97, 0xf4, 0xaf, 0xfa,
     0xc0, 0x81, 0xff, 0xff, 0xc0, 0x81, 0xaf, 0xfa, 0x97, 0xf4, 0xab, 0xea,
     0xb5, 0xd6, 0xba, 0xae, 0xbd, 0xde};
